# xmcd
#
# Track frame offsets: 
#        150
#        15190
#        30230
#        43137
#        60689
#        77462
#        116479
#        127381
#        152836
#        176850
#        191312
#        205368
#        232778
#        249230
#        273094
#        285337
#        300093
#
# Disc length: 4262 seconds
#
# Revision: 0
# Processed by: cddbd v1.5.2PL0 Copyright (c) Steve Scherf et al.
# Submitted via: ExactAudioCopy v0.99pb4
#
DISCID=cd10a411
DTITLE=Live - Hanna Banaszak
DYEAR=2007
DGENRE=Blues
TTITLE0=Nie budzcie mnie
TTITLE1=Samba trawy
TTITLE2=P³on moja gwiazdo
TTITLE3=Panienka z temperamentem
TTITLE4=O Romeo!
TTITLE5=Instrumental
TTITLE6=Po co tyle swiec nade mna
TTITLE7=Truskawki w Milanowku
TTITLE8=Summertime
TTITLE9=Samba na jedna nute
TTITLE10=Po karnawale
TTITLE11=Samba przed rozstaniem
TTITLE12=Przedostatni walc
TTITLE13=Modlitwa
TTITLE14=Trudno inaczej
TTITLE15=Trzeba marzyc
TTITLE16=Ludzie gina
EXTD=
EXTT0=
EXTT1=
EXTT2=
EXTT3=
EXTT4=
EXTT5=
EXTT6=
EXTT7=
EXTT8=
EXTT9=
EXTT10=
EXTT11=
EXTT12=
EXTT13=
EXTT14=
EXTT15=
EXTT16=
PLAYORDER=
